<svg aria-roledescription="er" viewBox="0 0 470.7298278808594 320" style="max-width: 470.73px; background-color: white;" xmlns:xlink="http://www.w3.org/1999/xlink" xmlns="http://www.w3.org/2000/svg" width="100%" id="mermaid-0"><style>#mermaid-0{font-family:"trebuchet ms",verdana,arial,sans-serif;font-size:16px;fill:#000000;}#mermaid-0 .error-icon{fill:#552222;}#mermaid-0 .error-text{fill:#552222;stroke:#552222;}#mermaid-0 .edge-thickness-normal{stroke-width:2px;}#mermaid-0 .edge-thickness-thick{stroke-width:3.5px;}#mermaid-0 .edge-pattern-solid{stroke-dasharray:0;}#mermaid-0 .edge-pattern-dashed{stroke-dasharray:3;}#mermaid-0 .edge-pattern-dotted{stroke-dasharray:2;}#mermaid-0 .marker{fill:#000000;stroke:#000000;}#mermaid-0 .marker.cross{stroke:#000000;}#mermaid-0 svg{font-family:"trebuchet ms",verdana,arial,sans-serif;font-size:16px;}#mermaid-0 .entityBox{fill:#cde498;stroke:#13540c;}#mermaid-0 .attributeBoxOdd{fill:#ffffff;stroke:#13540c;}#mermaid-0 .attributeBoxEven{fill:#f2f2f2;stroke:#13540c;}#mermaid-0 .relationshipLabelBox{fill:hsl(78.1578947368, 58.4615384615%, 84.5098039216%);opacity:0.7;background-color:hsl(78.1578947368, 58.4615384615%, 84.5098039216%);}#mermaid-0 .relationshipLabelBox rect{opacity:0.5;}#mermaid-0 .relationshipLine{stroke:#000000;}#mermaid-0 .entityTitleText{text-anchor:middle;font-size:18px;fill:#000000;}#mermaid-0 :root{--mermaid-font-family:"trebuchet ms",verdana,arial,sans-serif;}</style><g/><defs><marker orient="auto" markerHeight="18" markerWidth="18" refY="9" refX="0" id="ONLY_ONE_START"><path d="M9,0 L9,18 M15,0 L15,18" fill="none" stroke="gray"/></marker></defs><defs><marker orient="auto" markerHeight="18" markerWidth="18" refY="9" refX="18" id="ONLY_ONE_END"><path d="M3,0 L3,18 M9,0 L9,18" fill="none" stroke="gray"/></marker></defs><defs><marker orient="auto" markerHeight="18" markerWidth="30" refY="9" refX="0" id="ZERO_OR_ONE_START"><circle r="6" cy="9" cx="21" fill="white" stroke="gray"/><path d="M9,0 L9,18" fill="none" stroke="gray"/></marker></defs><defs><marker orient="auto" markerHeight="18" markerWidth="30" refY="9" refX="30" id="ZERO_OR_ONE_END"><circle r="6" cy="9" cx="9" fill="white" stroke="gray"/><path d="M21,0 L21,18" fill="none" stroke="gray"/></marker></defs><defs><marker orient="auto" markerHeight="36" markerWidth="45" refY="18" refX="18" id="ONE_OR_MORE_START"><path d="M0,18 Q 18,0 36,18 Q 18,36 0,18 M42,9 L42,27" fill="none" stroke="gray"/></marker></defs><defs><marker orient="auto" markerHeight="36" markerWidth="45" refY="18" refX="27" id="ONE_OR_MORE_END"><path d="M3,9 L3,27 M9,18 Q27,0 45,18 Q27,36 9,18" fill="none" stroke="gray"/></marker></defs><defs><marker orient="auto" markerHeight="36" markerWidth="57" refY="18" refX="18" id="ZERO_OR_MORE_START"><circle r="6" cy="18" cx="48" fill="white" stroke="gray"/><path d="M0,18 Q18,0 36,18 Q18,36 0,18" fill="none" stroke="gray"/></marker></defs><defs><marker orient="auto" markerHeight="36" markerWidth="57" refY="18" refX="39" id="ZERO_OR_MORE_END"><circle r="6" cy="18" cx="9" fill="white" stroke="gray"/><path d="M21,18 Q39,0 57,18 Q39,36 21,18" fill="none" stroke="gray"/></marker></defs><path style="stroke: gray; fill: none;" marker-start="url(#ZERO_OR_MORE_START)" marker-end="url(#ONLY_ONE_END)" d="M81.146484375,110L81.146484375,118.33333333333333C81.146484375,126.66666666666667,81.146484375,143.33333333333334,85.5324492872807,160C89.91841419956141,176.66666666666666,98.69034402412281,193.33333333333334,103.0763089364035,201.66666666666666L107.4622738486842,210" class="er relationshipLine"/><path style="stroke: gray; fill: none;" marker-start="url(#ZERO_OR_MORE_START)" marker-end="url(#ONLY_ONE_END)" d="M359.43685953240646,88L365.7526490060907,100C372.0684384797749,112,384.70001742714334,136,391.01580690082756,158.16666666666666C397.3315963745117,180.33333333333334,397.3315963745117,200.66666666666666,397.3315963745117,210.83333333333334L397.3315963745117,221" class="er relationshipLine"/><path style="stroke: gray; fill: none;" marker-start="url(#ZERO_OR_MORE_START)" marker-end="url(#ONLY_ONE_END)" d="M320.55188052528786,88L306.5798548648232,100C292.60782920435855,112,264.6637778834293,136,241.4309415047629,156.33333333333334C218.1981051260965,176.66666666666666,199.676483689693,193.33333333333334,190.41567297149126,201.66666666666666L181.15486225328948,210" class="er relationshipLine"/><g transform="translate(63.32098388671875,210 )" id="entity-habits-c05229d0-9adb-4d57-9126-714c32cadb83"><rect height="90" width="135.6510009765625" y="0" x="0" class="er entityBox"/><text style="dominant-baseline: middle; text-anchor: middle; font-size: 12px;" transform="translate(67.82550048828125,12)" y="0" x="0" id="text-entity-habits-c05229d0-9adb-4d57-9126-714c32cadb83" class="er entityLabel">habits</text><rect height="22" width="54.04840087890625" y="24" x="0" class="er attributeBoxOdd"/><text style="dominant-baseline: middle; font-size: 10.2px;" transform="translate(5,35)" y="0" x="0" id="text-entity-habits-c05229d0-9adb-4d57-9126-714c32cadb83-attr-1-type" class="er entityLabel">String</text><rect height="22" width="59.921875" y="24" x="54.04840087890625" class="er attributeBoxOdd"/><text style="dominant-baseline: middle; font-size: 10.2px;" transform="translate(59.04840087890625,35)" y="0" x="0" id="text-entity-habits-c05229d0-9adb-4d57-9126-714c32cadb83-attr-1-name" class="er entityLabel">id</text><rect height="22" width="21.68072509765625" y="24" x="113.97027587890625" class="er attributeBoxOdd"/><text style="dominant-baseline: middle; font-size: 10.2px;" transform="translate(118.97027587890625,35)" y="0" x="0" id="text-entity-habits-c05229d0-9adb-4d57-9126-714c32cadb83-attr-1-key" class="er entityLabel">PK</text><rect height="22" width="54.04840087890625" y="46" x="0" class="er attributeBoxEven"/><text style="dominant-baseline: middle; font-size: 10.2px;" transform="translate(5,57)" y="0" x="0" id="text-entity-habits-c05229d0-9adb-4d57-9126-714c32cadb83-attr-2-type" class="er entityLabel">String</text><rect height="22" width="59.921875" y="46" x="54.04840087890625" class="er attributeBoxEven"/><text style="dominant-baseline: middle; font-size: 10.2px;" transform="translate(59.04840087890625,57)" y="0" x="0" id="text-entity-habits-c05229d0-9adb-4d57-9126-714c32cadb83-attr-2-name" class="er entityLabel">title</text><rect height="22" width="21.68072509765625" y="46" x="113.97027587890625" class="er attributeBoxEven"/><text style="dominant-baseline: middle; font-size: 10.2px;" transform="translate(118.97027587890625,57)" y="0" x="0" id="text-entity-habits-c05229d0-9adb-4d57-9126-714c32cadb83-attr-2-key" class="er entityLabel"/><rect height="22" width="54.04840087890625" y="68" x="0" class="er attributeBoxOdd"/><text style="dominant-baseline: middle; font-size: 10.2px;" transform="translate(5,79)" y="0" x="0" id="text-entity-habits-c05229d0-9adb-4d57-9126-714c32cadb83-attr-3-type" class="er entityLabel">DateTime</text><rect height="22" width="59.921875" y="68" x="54.04840087890625" class="er attributeBoxOdd"/><text style="dominant-baseline: middle; font-size: 10.2px;" transform="translate(59.04840087890625,79)" y="0" x="0" id="text-entity-habits-c05229d0-9adb-4d57-9126-714c32cadb83-attr-3-name" class="er entityLabel">created_at</text><rect height="22" width="21.68072509765625" y="68" x="113.97027587890625" class="er attributeBoxOdd"/><text style="dominant-baseline: middle; font-size: 10.2px;" transform="translate(118.97027587890625,79)" y="0" x="0" id="text-entity-habits-c05229d0-9adb-4d57-9126-714c32cadb83-attr-3-key" class="er entityLabel"/></g><g transform="translate(20,20 )" id="entity-habitweekdays-9088a1d3-1c29-4267-b7d9-12f40d7cf9dd"><rect height="90" width="122.29296875" y="0" x="0" class="er entityBox"/><text style="dominant-baseline: middle; text-anchor: middle; font-size: 12px;" transform="translate(61.146484375,12)" y="0" x="0" id="text-entity-habitweekdays-9088a1d3-1c29-4267-b7d9-12f40d7cf9dd" class="er entityLabel">habit_week_days</text><rect height="22" width="39.448872884114586" y="24" x="0" class="er attributeBoxOdd"/><text style="dominant-baseline: middle; font-size: 10.2px;" transform="translate(5,35)" y="0" x="0" id="text-entity-habitweekdays-9088a1d3-1c29-4267-b7d9-12f40d7cf9dd-attr-1-type" class="er entityLabel">String</text><rect height="22" width="58.198872884114586" y="24" x="39.448872884114586" class="er attributeBoxOdd"/><text style="dominant-baseline: middle; font-size: 10.2px;" transform="translate(44.448872884114586,35)" y="0" x="0" id="text-entity-habitweekdays-9088a1d3-1c29-4267-b7d9-12f40d7cf9dd-attr-1-name" class="er entityLabel">id</text><rect height="22" width="24.645222981770832" y="24" x="97.64774576822917" class="er attributeBoxOdd"/><text style="dominant-baseline: middle; font-size: 10.2px;" transform="translate(102.64774576822917,35)" y="0" x="0" id="text-entity-habitweekdays-9088a1d3-1c29-4267-b7d9-12f40d7cf9dd-attr-1-key" class="er entityLabel">PK</text><rect height="22" width="39.448872884114586" y="46" x="0" class="er attributeBoxEven"/><text style="dominant-baseline: middle; font-size: 10.2px;" transform="translate(5,57)" y="0" x="0" id="text-entity-habitweekdays-9088a1d3-1c29-4267-b7d9-12f40d7cf9dd-attr-2-type" class="er entityLabel">Int</text><rect height="22" width="58.198872884114586" y="46" x="39.448872884114586" class="er attributeBoxEven"/><text style="dominant-baseline: middle; font-size: 10.2px;" transform="translate(44.448872884114586,57)" y="0" x="0" id="text-entity-habitweekdays-9088a1d3-1c29-4267-b7d9-12f40d7cf9dd-attr-2-name" class="er entityLabel">week_day</text><rect height="22" width="24.645222981770832" y="46" x="97.64774576822917" class="er attributeBoxEven"/><text style="dominant-baseline: middle; font-size: 10.2px;" transform="translate(102.64774576822917,57)" y="0" x="0" id="text-entity-habitweekdays-9088a1d3-1c29-4267-b7d9-12f40d7cf9dd-attr-2-key" class="er entityLabel"/><rect height="22" width="39.448872884114586" y="68" x="0" class="er attributeBoxOdd"/><text style="dominant-baseline: middle; font-size: 10.2px;" transform="translate(5,79)" y="0" x="0" id="text-entity-habitweekdays-9088a1d3-1c29-4267-b7d9-12f40d7cf9dd-attr-3-type" class="er entityLabel">String</text><rect height="22" width="58.198872884114586" y="68" x="39.448872884114586" class="er attributeBoxOdd"/><text style="dominant-baseline: middle; font-size: 10.2px;" transform="translate(44.448872884114586,79)" y="0" x="0" id="text-entity-habitweekdays-9088a1d3-1c29-4267-b7d9-12f40d7cf9dd-attr-3-name" class="er entityLabel">habitId</text><rect height="22" width="24.645222981770832" y="68" x="97.64774576822917" class="er attributeBoxOdd"/><text style="dominant-baseline: middle; font-size: 10.2px;" transform="translate(102.64774576822917,79)" y="0" x="0" id="text-entity-habitweekdays-9088a1d3-1c29-4267-b7d9-12f40d7cf9dd-attr-3-key" class="er entityLabel"/></g><g transform="translate(343.93335723876953,221 )" id="entity-days-8630c60e-6548-485b-b93f-80fb1ce602d0"><rect height="68" width="106.79647827148438" y="0" x="0" class="er entityBox"/><text style="dominant-baseline: middle; text-anchor: middle; font-size: 12px;" transform="translate(53.39823913574219,12)" y="0" x="0" id="text-entity-days-8630c60e-6548-485b-b93f-80fb1ce602d0" class="er entityLabel">days</text><rect height="22" width="54.04840087890625" y="24" x="0" class="er attributeBoxOdd"/><text style="dominant-baseline: middle; font-size: 10.2px;" transform="translate(5,35)" y="0" x="0" id="text-entity-days-8630c60e-6548-485b-b93f-80fb1ce602d0-attr-1-type" class="er entityLabel">String</text><rect height="22" width="31.067352294921875" y="24" x="54.04840087890625" class="er attributeBoxOdd"/><text style="dominant-baseline: middle; font-size: 10.2px;" transform="translate(59.04840087890625,35)" y="0" x="0" id="text-entity-days-8630c60e-6548-485b-b93f-80fb1ce602d0-attr-1-name" class="er entityLabel">id</text><rect height="22" width="21.68072509765625" y="24" x="85.11575317382812" class="er attributeBoxOdd"/><text style="dominant-baseline: middle; font-size: 10.2px;" transform="translate(90.11575317382812,35)" y="0" x="0" id="text-entity-days-8630c60e-6548-485b-b93f-80fb1ce602d0-attr-1-key" class="er entityLabel">PK</text><rect height="22" width="54.04840087890625" y="46" x="0" class="er attributeBoxEven"/><text style="dominant-baseline: middle; font-size: 10.2px;" transform="translate(5,57)" y="0" x="0" id="text-entity-days-8630c60e-6548-485b-b93f-80fb1ce602d0-attr-2-type" class="er entityLabel">DateTime</text><rect height="22" width="31.067352294921875" y="46" x="54.04840087890625" class="er attributeBoxEven"/><text style="dominant-baseline: middle; font-size: 10.2px;" transform="translate(59.04840087890625,57)" y="0" x="0" id="text-entity-days-8630c60e-6548-485b-b93f-80fb1ce602d0-attr-2-name" class="er entityLabel">date</text><rect height="22" width="21.68072509765625" y="46" x="85.11575317382812" class="er attributeBoxEven"/><text style="dominant-baseline: middle; font-size: 10.2px;" transform="translate(90.11575317382812,57)" y="0" x="0" id="text-entity-days-8630c60e-6548-485b-b93f-80fb1ce602d0-attr-2-key" class="er entityLabel"/></g><g transform="translate(297.3315963745117,42 )" id="entity-dayhabits-778f60a5-3d95-4adb-a497-f3d419adc865"><rect height="46" width="100" y="0" x="0" class="er entityBox"/><text style="dominant-baseline: middle; text-anchor: middle; font-size: 12px;" transform="translate(50,12)" y="0" x="0" id="text-entity-dayhabits-778f60a5-3d95-4adb-a497-f3d419adc865" class="er entityLabel">day_habits</text><rect height="22" width="44.231424967447914" y="24" x="0" class="er attributeBoxOdd"/><text style="dominant-baseline: middle; font-size: 10.2px;" transform="translate(5,35)" y="0" x="0" id="text-entity-dayhabits-778f60a5-3d95-4adb-a497-f3d419adc865-attr-1-type" class="er entityLabel">String</text><rect height="22" width="26.340799967447918" y="24" x="44.231424967447914" class="er attributeBoxOdd"/><text style="dominant-baseline: middle; font-size: 10.2px;" transform="translate(49.231424967447914,35)" y="0" x="0" id="text-entity-dayhabits-778f60a5-3d95-4adb-a497-f3d419adc865-attr-1-name" class="er entityLabel">id</text><rect height="22" width="29.427775065104168" y="24" x="70.57222493489583" class="er attributeBoxOdd"/><text style="dominant-baseline: middle; font-size: 10.2px;" transform="translate(75.57222493489583,35)" y="0" x="0" id="text-entity-dayhabits-778f60a5-3d95-4adb-a497-f3d419adc865-attr-1-key" class="er entityLabel">PK</text></g><rect height="14" width="27.96875" y="155.108642578125" x="72.1260757446289" class="er relationshipLabelBox"/><text style="text-anchor: middle; dominant-baseline: middle; font-size: 12px;" y="162.108642578125" x="86.1104507446289" id="rel1" class="er relationshipLabel">habit</text><rect height="14" width="18.990234375" y="144.62586975097656" x="379.49884033203125" class="er relationshipLabelBox"/><text style="text-anchor: middle; dominant-baseline: middle; font-size: 12px;" y="151.62586975097656" x="388.99395751953125" id="rel2" class="er relationshipLabel">day</text><rect height="14" width="27.96875" y="141.494873046875" x="236.42617797851562" class="er relationshipLabelBox"/><text style="text-anchor: middle; dominant-baseline: middle; font-size: 12px;" y="148.494873046875" x="250.41055297851562" id="rel3" class="er relationshipLabel">habit</text></svg>